<svg id="Layer_1" data-name="Layer 1" xmlns="http://www.w3.org/2000/svg" viewBox="0 0 24 23.99"><defs><style>.cls-1{fill:#494d56;}.cls-2{fill:#fff;}</style></defs><title>social</title><path class="cls-1" d="M24,12A12,12,0,0,1,13,23.93,5.82,5.82,0,0,1,12,24a11.64,11.64,0,0,1-2.6-.27A12,12,0,1,1,24,12Z"/><path class="cls-2" d="M13.38,9.47a1.43,1.43,0,0,1,1.08-.37,6.45,6.45,0,0,1,1.64.22l.47-2.51a8.76,8.76,0,0,0-3-.43,4.91,4.91,0,0,0-2.48.52A2.79,2.79,0,0,0,9.79,8.27a6.47,6.47,0,0,0-.37,2.54v1h-2v2.88h2v9A11.64,11.64,0,0,0,12,24a5.82,5.82,0,0,0,1-.06V14.68h2.63V11.8H13v-.93A2,2,0,0,1,13.38,9.47Z"/></svg>