<svg id="Layer_1" data-name="Layer 1" xmlns="http://www.w3.org/2000/svg" viewBox="0 0 24 24.01"><defs><style>.cls-1{fill:#4e525b;}.cls-2{fill:#444851;fill-rule:evenodd;}</style></defs><title>social</title><path class="cls-1" d="M12,.59A11.42,11.42,0,1,1,.59,12,11.41,11.41,0,0,1,12,.59M12,0A12,12,0,1,0,24,12,12,12,0,0,0,12,0Z"/><path class="cls-2" d="M16.54,5.84H7.46A1.46,1.46,0,0,0,5.83,7.49v9.06a1.44,1.44,0,0,0,1.58,1.61h9.13a1.46,1.46,0,0,0,1.63-1.62V7.45A1.47,1.47,0,0,0,16.54,5.84Zm-1,1.4c1.22,0,1.22,0,1.22,1.22s0,1.2-1.2,1.2-1.21,0-1.21-1.22S14.35,7.24,15.54,7.24ZM12,9.61A2.39,2.39,0,1,1,9.6,12,2.44,2.44,0,0,1,12,9.61ZM16.76,16c0,.57-.16.73-.73.73H8c-.56,0-.72-.16-.72-.73,0-1.49,0-3,0-4.51,0-.42.12-.51.51-.5.56.05.58,0,.51.57a3.81,3.81,0,0,0,3,4.13,3.86,3.86,0,0,0,4.41-2.65,3.8,3.8,0,0,0,.08-1.77c0-.22,0-.26.2-.26.85-.07.85-.08.85.8Z"/></svg>