<svg id="Layer_1" data-name="Layer 1" xmlns="http://www.w3.org/2000/svg" viewBox="0 0 24 24.01"><defs><style>.cls-1{fill:#494d56;}.cls-2{fill:#fff;fill-rule:evenodd;}</style></defs><title>social</title><path class="cls-1" d="M24,12A12,12,0,1,1,12,0,12,12,0,0,1,24,12Z"/><path class="cls-2" d="M4.74,16.89A6.87,6.87,0,0,0,8,16.32a5.63,5.63,0,0,0,1.32-.79A3.15,3.15,0,0,1,8,15.19a3.07,3.07,0,0,1-1.5-1.68c-.07-.16-.07-.16.11-.15a2.7,2.7,0,0,0,1.16-.08A3.57,3.57,0,0,1,7,13,3.19,3.19,0,0,1,5.3,10.3c0-.14,0-.15.16-.09a3.25,3.25,0,0,0,1.23.34c-.2-.19-.37-.33-.53-.49a3.21,3.21,0,0,1-.49-3.57c.07-.15.1-.15.21,0a8.92,8.92,0,0,0,5.5,3.08c.23,0,.47.05.7.08s.17,0,.15-.16a3.16,3.16,0,0,1,5.28-2.84.33.33,0,0,0,.35.08,5.84,5.84,0,0,0,1.67-.64L19.66,6A3.11,3.11,0,0,1,18.33,7.7,6,6,0,0,0,20,7.25c0,.08-.05.13-.08.19a6.4,6.4,0,0,1-1.31,1.34.27.27,0,0,0-.12.25,9.15,9.15,0,0,1-2.17,6.16,8.57,8.57,0,0,1-5.27,3A8.94,8.94,0,0,1,4.8,16.92Z"/></svg>